<svg xmlns="http://www.w3.org/2000/svg" width="512.000000pt" height="512.000000pt" viewBox="0 0 512.000000 512.000000" preserveAspectRatio="xMidYMid meet"><g transform="translate(0.000000,512.000000) scale(0.100000,-0.100000)" fill="#000000" stroke="none"><path d="M4568 4920 c-449 -47 -717 -249 -808 -609 l-11 -43 -50 75 c-107 161 -323 359 -392 359 -47 0 -65 -11 -132 -83 -190 -206 -307 -434 -322 -629 l-6 -79 -61 53 c-94 81 -120 96 -164 96 -37 0 -47 -7 -107 -67 -184 -186 -307 -411 -336 -616 l-12 -85 -59 44 c-94 69 -113 65 -218 -44 -94 -96 -202 -250 -250 -355 -35 -77 -66 -188 -75 -268 l-7 -57 -65 49 c-98 75 -116 72 -224 -39 -47 -49 -118 -137 -157 -196 -261 -396 -223 -744 124 -1105 l92 -97 -191 -180 c-467 -440 -718 -644 -793 -644 -49 0 -94 -45 -94 -93 0 -68 73 -123 143 -108 133 30 445 282 939 759 76 72 143 132 149 132 6 0 36 -22 67 -49 123 -105 282 -194 418 -233 113 -32 280 -32 384 0 151 48 297 140 428 270 89 89 168 188 177 223 8 34 -10 78 -51 120 l-34 35 72 17 c97 23 217 83 314 155 95 71 271 252 303 314 31 57 24 85 -35 148 l-46 49 29 6 c198 44 364 145 533 321 115 120 153 179 146 223 -3 19 -17 46 -31 61 l-26 28 45 6 c206 31 449 193 630 420 60 74 70 99 56 141 -32 95 -341 322 -518 380 -29 9 -52 18 -50 20 2 1 39 17 83 34 114 46 190 95 272 177 59 59 80 90 121 175 80 166 109 323 98 544 -9 213 -27 243 -142 250 -38 2 -108 -1 -156 -5z m99 -347 c-5 -175 -18 -236 -72 -352 -65 -138 -200 -240 -383 -290 -85 -23 -269 -47 -280 -37 -4 4 -7 67 -6 139 2 409 184 618 589 681 50 8 105 14 124 15 l33 1 -5 -157z m-1256 -190 c94 -98 131 -148 178 -240 118 -236 67 -447 -188 -763 l-19 -24 -89 89 c-102 103 -164 189 -207 290 -25 59 -31 87 -34 173 -4 89 -1 113 21 185 15 45 48 119 75 164 59 98 149 213 166 213 7 0 51 -39 97 -87z m-680 -640 c206 -212 273 -392 224 -602 -26 -110 -116 -270 -216 -384 l-34 -38 -59 53 c-120 107 -222 259 -260 387 -53 178 15 390 193 613 25 31 51 57 57 57 6 1 49 -38 95 -86z m1489 -185 c106 -24 365 -178 404 -240 9 -15 0 -29 -54 -84 -155 -158 -310 -245 -464 -260 -151 -15 -367 74 -531 218 l-45 40 48 56 c75 90 131 140 209 188 153 96 273 119 433 82z m-882 -419 c2 -5 -9 -11 -25 -15 -33 -7 -119 -30 -150 -39 -21 -7 -22 -5 -14 22 5 16 12 62 16 101 l7 71 81 -66 c45 -36 83 -70 85 -74z m-1212 -81 c276 -287 305 -551 97 -859 -28 -41 -69 -94 -91 -119 l-41 -45 -81 80 c-87 86 -168 195 -202 272 -99 224 -43 459 169 711 l45 52 26 -19 c15 -11 50 -43 78 -73z m1409 -140 c77 -16 222 -88 310 -155 131 -99 128 -86 32 -182 -99 -100 -222 -184 -320 -219 -133 -48 -294 -33 -442 41 -80 40 -255 168 -255 186 0 19 138 167 193 208 165 122 307 158 482 121z m-866 -424 l52 -47 -93 -23 c-51 -13 -94 -24 -95 -24 -1 0 2 15 7 33 5 17 11 58 15 90 l6 57 28 -19 c15 -11 51 -41 80 -67z m-1163 -106 c248 -258 296 -500 153 -766 -40 -76 -131 -202 -169 -237 l-22 -20 -92 96 c-157 163 -225 295 -234 449 -8 165 63 337 215 518 l45 52 26 -19 c15 -11 50 -43 78 -73z m1467 -167 c116 -41 232 -111 341 -204 l39 -33 -74 -76 c-315 -322 -608 -341 -962 -64 l-75 59 66 79 c100 122 236 216 368 253 69 20 222 13 297 -14z m-900 -429 c18 -20 18 -20 -15 -27 -18 -3 -55 -13 -81 -22 -27 -8 -50 -13 -53 -10 -3 3 0 43 7 91 l12 85 56 -48 c31 -27 64 -58 74 -69z m232 -227 c90 -22 250 -107 343 -182 l82 -66 -33 -41 c-47 -57 -173 -164 -240 -205 -99 -59 -174 -84 -266 -89 -126 -7 -236 23 -366 102 -67 40 -194 138 -195 149 0 17 126 159 174 196 176 134 335 178 501 136z"></path></g></svg>